<mxfile host="app.diagrams.net" modified="2023-06-07T08:22:15.957Z" agent="Mozilla/5.0 (X11; Linux x86_64) AppleWebKit/537.36 (KHTML, like Gecko) Chrome/113.0.0.0 Safari/537.36" version="21.3.7" etag="BDneBO4HTy17EQ-UuTU_" type="github">
  <diagram name="Pagina-1" id="gPWjSC0sNMpcJGo77wKc">
    <mxGraphModel>
      <root>
        <mxCell id="0" />
        <mxCell id="1" parent="0" />
      </root>
    </mxGraphModel>
  </diagram>
</mxfile>
